{
	"scenes":[{
		"nodes":[0]
	}],
	"asset":{
		"version":"2.0",
		"generator":"Created using the official Cinema 4D glTF Exporter 1.000x284978"
	},
	"nodes":[{
		"scale":[1.0,
		1.0,
		1.0],
		"name":"Closed_Box",
		"translation":[0.0,
		16.368982315063478,
		50.174339294433597],
		"rotation":[0.0,
		0.0,
		0.0,
		-1.0],
		"children":[1]
	},
	{
		"scale":[1.0,
		1.0,
		1.0],
		"name":"Box",
		"translation":[0.0,
		-18.744504928588868,
		-58.87383270263672],
		"rotation":[0.0,
		0.0,
		0.0,
		-1.0],
		"children":[2]
	},
	{
		"name":"Box",
		"mesh":0
	}],
	"meshes":[{
		"name":"Box",
		"primitives":[{
			"attributes":{
				"POSITION":1
			},
			"indices":0,
			"material":0
		}]
	}],
	"accessors":[{
		"type":"SCALAR",
		"bufferView":0,
		"componentType":5123,
		"count":6060,
		"byteOffset":0,
		"min":[0],
		"max":[1067]
	},
	{
		"type":"VEC3",
		"bufferView":1,
		"componentType":5126,
		"count":1068,
		"byteOffset":0,
		"min":[-129.1654052734375,
		2.3755218982696535,
		-116.34676361083985],
		"max":[129.1654052734375,
		32.574764251708987,
		116.34754943847656]
	}],
	"bufferViews":[{
		"target":34963,
		"buffer":0,
		"byteOffset":0,
		"byteLength":12120
	},
	{
		"target":34962,
		"buffer":0,
		"byteOffset":12120,
		"byteLength":12816
	}],
	"buffers":[{
		"uri":"data:application/octet-stream;base64,",
		"byteLength":24936
	}],
	"materials":[{
		"pbrMetallicRoughness":{
			"baseColorFactor":[0.8,
			0.8,
			0.8,
			1.0],
			"metallicFactor":0.0,
			"roughnessFactor":0.5
		},
		"emissiveFactor":[0.0,
		0.0,
		0.0],
		"alphaMode":"OPAQUE",
		"doubleSided":false,
		"name":"Back"
	}]
}